<mxfile host="app.diagrams.net" modified="2020-12-06T16:58:03.281Z" agent="5.0 (X11; Linux x86_64) AppleWebKit/537.36 (KHTML, like Gecko) Chrome/85.0.4183.121 Safari/537.36" etag="fHd0PVM_1aGVkJWh8F5t" version="13.10.9" type="github">
  <diagram id="kgpKYQtTHZ0yAKxKKP6v" name="Page-1">
    <mxGraphModel dx="645" dy="968" grid="1" gridSize="10" guides="1" tooltips="1" connect="1" arrows="1" fold="1" page="1" pageScale="1" pageWidth="850" pageHeight="1100" math="0" shadow="0">
      <root>
        <mxCell id="0" />
        <mxCell id="1" parent="0" />
        <mxCell id="3nuBFxr9cyL0pnOWT2aG-1" value="loader.py" style="shape=umlLifeline;perimeter=lifelinePerimeter;container=1;collapsible=0;recursiveResize=0;rounded=0;shadow=0;strokeWidth=1;" parent="1" vertex="1">
          <mxGeometry x="130" y="80" width="100" height="300" as="geometry" />
        </mxCell>
        <mxCell id="3nuBFxr9cyL0pnOWT2aG-2" value="" style="points=[];perimeter=orthogonalPerimeter;rounded=0;shadow=0;strokeWidth=1;" parent="3nuBFxr9cyL0pnOWT2aG-1" vertex="1">
          <mxGeometry x="45" y="70" width="10" height="190" as="geometry" />
        </mxCell>
        <mxCell id="L4s6R9UhhCUD0O3jiBms-11" style="edgeStyle=orthogonalEdgeStyle;rounded=0;orthogonalLoop=1;jettySize=auto;html=1;entryX=0.5;entryY=0;entryDx=0;entryDy=0;" edge="1" parent="1" source="3nuBFxr9cyL0pnOWT2aG-5" target="L4s6R9UhhCUD0O3jiBms-6">
          <mxGeometry relative="1" as="geometry">
            <Array as="points">
              <mxPoint x="715" y="170" />
            </Array>
          </mxGeometry>
        </mxCell>
        <mxCell id="L4s6R9UhhCUD0O3jiBms-16" value="dp: Dispatcher" style="edgeLabel;html=1;align=center;verticalAlign=middle;resizable=0;points=[];" vertex="1" connectable="0" parent="L4s6R9UhhCUD0O3jiBms-11">
          <mxGeometry x="-0.176" y="2" relative="1" as="geometry">
            <mxPoint x="-2.17" y="-8" as="offset" />
          </mxGeometry>
        </mxCell>
        <mxCell id="3nuBFxr9cyL0pnOWT2aG-5" value="handlers" style="shape=umlLifeline;perimeter=lifelinePerimeter;container=1;collapsible=0;recursiveResize=0;rounded=0;shadow=0;strokeWidth=1;" parent="1" vertex="1">
          <mxGeometry x="450" y="80" width="100" height="470" as="geometry" />
        </mxCell>
        <mxCell id="3nuBFxr9cyL0pnOWT2aG-6" value="" style="points=[];perimeter=orthogonalPerimeter;rounded=0;shadow=0;strokeWidth=1;" parent="3nuBFxr9cyL0pnOWT2aG-5" vertex="1">
          <mxGeometry x="45" y="80" width="10" height="390" as="geometry" />
        </mxCell>
        <mxCell id="3nuBFxr9cyL0pnOWT2aG-8" value="dp: Dispatcher" style="verticalAlign=bottom;endArrow=block;entryX=0;entryY=0;shadow=0;strokeWidth=1;" parent="1" source="3nuBFxr9cyL0pnOWT2aG-2" target="3nuBFxr9cyL0pnOWT2aG-6" edge="1">
          <mxGeometry relative="1" as="geometry">
            <mxPoint x="275" y="160" as="sourcePoint" />
          </mxGeometry>
        </mxCell>
        <mxCell id="3nuBFxr9cyL0pnOWT2aG-9" value="dp: Dispatcher" style="verticalAlign=bottom;endArrow=block;entryX=1;entryY=0;shadow=0;strokeWidth=1;" parent="1" source="3nuBFxr9cyL0pnOWT2aG-6" target="3nuBFxr9cyL0pnOWT2aG-4" edge="1">
          <mxGeometry relative="1" as="geometry">
            <mxPoint x="240" y="200" as="sourcePoint" />
          </mxGeometry>
        </mxCell>
        <mxCell id="L4s6R9UhhCUD0O3jiBms-15" style="edgeStyle=orthogonalEdgeStyle;rounded=0;orthogonalLoop=1;jettySize=auto;html=1;" edge="1" parent="1" source="L4s6R9UhhCUD0O3jiBms-6" target="3nuBFxr9cyL0pnOWT2aG-5">
          <mxGeometry relative="1" as="geometry">
            <Array as="points">
              <mxPoint x="715" y="230" />
            </Array>
          </mxGeometry>
        </mxCell>
        <mxCell id="L4s6R9UhhCUD0O3jiBms-17" value="dp: Dispatcher" style="edgeLabel;html=1;align=center;verticalAlign=middle;resizable=0;points=[];" vertex="1" connectable="0" parent="L4s6R9UhhCUD0O3jiBms-15">
          <mxGeometry x="0.2535" relative="1" as="geometry">
            <mxPoint x="2.5" y="-10" as="offset" />
          </mxGeometry>
        </mxCell>
        <mxCell id="L4s6R9UhhCUD0O3jiBms-6" value="channels" style="rounded=1;whiteSpace=wrap;html=1;" vertex="1" parent="1">
          <mxGeometry x="660" y="180" width="110" height="30" as="geometry" />
        </mxCell>
        <mxCell id="L4s6R9UhhCUD0O3jiBms-18" style="edgeStyle=orthogonalEdgeStyle;rounded=0;orthogonalLoop=1;jettySize=auto;html=1;entryX=0.5;entryY=0;entryDx=0;entryDy=0;exitX=0.5;exitY=0.419;exitDx=0;exitDy=0;exitPerimeter=0;" edge="1" parent="1" target="L4s6R9UhhCUD0O3jiBms-22" source="3nuBFxr9cyL0pnOWT2aG-6">
          <mxGeometry relative="1" as="geometry">
            <mxPoint x="510" y="290" as="sourcePoint" />
            <Array as="points">
              <mxPoint x="715" y="290" />
            </Array>
          </mxGeometry>
        </mxCell>
        <mxCell id="L4s6R9UhhCUD0O3jiBms-19" value="dp: Dispatcher" style="edgeLabel;html=1;align=center;verticalAlign=middle;resizable=0;points=[];" vertex="1" connectable="0" parent="L4s6R9UhhCUD0O3jiBms-18">
          <mxGeometry x="-0.176" y="2" relative="1" as="geometry">
            <mxPoint x="-2.17" y="-8" as="offset" />
          </mxGeometry>
        </mxCell>
        <mxCell id="L4s6R9UhhCUD0O3jiBms-20" style="edgeStyle=orthogonalEdgeStyle;rounded=0;orthogonalLoop=1;jettySize=auto;html=1;" edge="1" parent="1" source="L4s6R9UhhCUD0O3jiBms-22">
          <mxGeometry relative="1" as="geometry">
            <mxPoint x="499.66666666666674" y="350" as="targetPoint" />
            <Array as="points">
              <mxPoint x="715" y="350" />
            </Array>
          </mxGeometry>
        </mxCell>
        <mxCell id="L4s6R9UhhCUD0O3jiBms-21" value="dp: Dispatcher" style="edgeLabel;html=1;align=center;verticalAlign=middle;resizable=0;points=[];" vertex="1" connectable="0" parent="L4s6R9UhhCUD0O3jiBms-20">
          <mxGeometry x="0.2535" relative="1" as="geometry">
            <mxPoint x="2.5" y="-10" as="offset" />
          </mxGeometry>
        </mxCell>
        <mxCell id="L4s6R9UhhCUD0O3jiBms-22" value="groups" style="rounded=1;whiteSpace=wrap;html=1;" vertex="1" parent="1">
          <mxGeometry x="660" y="300" width="110" height="30" as="geometry" />
        </mxCell>
        <mxCell id="L4s6R9UhhCUD0O3jiBms-24" style="edgeStyle=orthogonalEdgeStyle;rounded=0;orthogonalLoop=1;jettySize=auto;html=1;entryX=0.5;entryY=0;entryDx=0;entryDy=0;exitX=0.5;exitY=0.419;exitDx=0;exitDy=0;exitPerimeter=0;" edge="1" parent="1" target="L4s6R9UhhCUD0O3jiBms-28">
          <mxGeometry relative="1" as="geometry">
            <mxPoint x="500" y="399.9999999999999" as="sourcePoint" />
            <Array as="points">
              <mxPoint x="715" y="400.11" />
            </Array>
          </mxGeometry>
        </mxCell>
        <mxCell id="L4s6R9UhhCUD0O3jiBms-25" value="dp: Dispatcher" style="edgeLabel;html=1;align=center;verticalAlign=middle;resizable=0;points=[];" vertex="1" connectable="0" parent="L4s6R9UhhCUD0O3jiBms-24">
          <mxGeometry x="-0.176" y="2" relative="1" as="geometry">
            <mxPoint x="-2.17" y="-8" as="offset" />
          </mxGeometry>
        </mxCell>
        <mxCell id="L4s6R9UhhCUD0O3jiBms-26" style="edgeStyle=orthogonalEdgeStyle;rounded=0;orthogonalLoop=1;jettySize=auto;html=1;" edge="1" parent="1" source="L4s6R9UhhCUD0O3jiBms-28">
          <mxGeometry relative="1" as="geometry">
            <mxPoint x="499.66666666666674" y="460.11" as="targetPoint" />
            <Array as="points">
              <mxPoint x="715" y="460.11" />
            </Array>
          </mxGeometry>
        </mxCell>
        <mxCell id="L4s6R9UhhCUD0O3jiBms-27" value="dp: Dispatcher" style="edgeLabel;html=1;align=center;verticalAlign=middle;resizable=0;points=[];" vertex="1" connectable="0" parent="L4s6R9UhhCUD0O3jiBms-26">
          <mxGeometry x="0.2535" relative="1" as="geometry">
            <mxPoint x="2.5" y="-10" as="offset" />
          </mxGeometry>
        </mxCell>
        <mxCell id="L4s6R9UhhCUD0O3jiBms-28" value="users" style="rounded=1;whiteSpace=wrap;html=1;" vertex="1" parent="1">
          <mxGeometry x="660" y="410.11" width="110" height="30" as="geometry" />
        </mxCell>
        <mxCell id="3nuBFxr9cyL0pnOWT2aG-4" value="app.py" style="points=[];perimeter=orthogonalPerimeter;rounded=0;shadow=0;strokeWidth=1;" parent="1" vertex="1">
          <mxGeometry x="146.25" y="520" width="67.5" height="80" as="geometry" />
        </mxCell>
        <mxCell id="L4s6R9UhhCUD0O3jiBms-29" value="" style="rounded=0;whiteSpace=wrap;html=1;" vertex="1" parent="1">
          <mxGeometry x="810" y="150" width="120" height="20" as="geometry" />
        </mxCell>
        <mxCell id="L4s6R9UhhCUD0O3jiBms-30" value="" style="rounded=0;whiteSpace=wrap;html=1;" vertex="1" parent="1">
          <mxGeometry x="810" y="190" width="120" height="20" as="geometry" />
        </mxCell>
        <mxCell id="L4s6R9UhhCUD0O3jiBms-31" value="" style="rounded=0;whiteSpace=wrap;html=1;" vertex="1" parent="1">
          <mxGeometry x="810" y="230" width="120" height="20" as="geometry" />
        </mxCell>
      </root>
    </mxGraphModel>
  </diagram>
</mxfile>
